:FULLY-SPECIFIED
:FORCE-ALL-JOINTS-BE-3DOF
:DEGREES
1631
root -14.8391 14.5691 19.3658 -16.0289 -70.9459 15.9106
lfemur 9.75998 -11.3951 -12.1148
ltibia 31.8429 -0 0
lfoot -21.8353 28.993 0.00899029
ltoes -43.4829 0 0
rfemur -52.3012 -14.6645 8.07196
rtibia 65.0968 -0 0
rfoot -9.02145 10.4597 0.00279901
rtoes 2.51292 -0 0
lowerback 12.9943 4.0147 -7.65135
upperback -0.517051 4.10082 -0.329663
thorax -8.39276 2.29277 3.11769
lowerneck 1.16136 -13.0735 -12.8315
upperneck 3.29838 -17.9535 10.5217
head 2.89379 -8.99549 4.44794
lclavicle 3.23522e-14 -3.57812e-15 0
lhumerus -72 -16.8712 104.359
lradius 104.18 -0 0
lwrist 54.5237 0 0
lhand -11.1568 49.3321 0.302783
lfingers 7.12502 -0 0
lthumb 14.8309 78.2946 0.124603
rclavicle 3.23522e-14 -3.57812e-15 0
rhumerus 46.3817 -3.92649 -55.7593
rradius 19.1697 -0 0
rwrist 21.3646 0 0
rhand -18.4298 -36.4357 0.0306918
rfingers 7.12502 -0 0
rthumb 7.85544 -66.2661 0.0300684
1632
root -14.8621 14.5686 19.3706 -16.0107 -70.9732 15.9798
lfemur 9.91988 -11.4348 -12.1602
ltibia 31.5742 -0 0
lfoot -21.7833 29.057 0.00835224
ltoes -43.4667 0 0
rfemur -52.37 -14.6825 8.07515
rtibia 65.2137 -0 0
rfoot -9.1797 10.4532 0.00260034
rtoes 2.51873 -0 0
lowerback 12.9793 4.01133 -7.6523
upperback -0.531895 4.09823 -0.32007
thorax -8.40093 2.29263 3.12932
lowerneck 1.19315 -13.0779 -12.8327
upperneck 3.28448 -17.9624 10.5274
head 2.8862 -9.00078 4.45175
lclavicle 3.23522e-14 -3.57812e-15 0
lhumerus -72.0171 -16.9216 104.376
lradius 104.175 -0 0
lwrist 54.5821 0 0
lhand -11.8807 49.178 0.281209
lfingers 7.12502 -0 0
lthumb 14.1369 78.2284 0.115728
rclavicle 3.23522e-14 -3.57812e-15 0
rhumerus 46.439 -3.95338 -55.8352
rradius 19.1461 -0 0
rwrist 21.5368 0 0
rhand -18.3579 -36.278 0.0285132
rfingers 7.12502 -0 0
rthumb 7.92487 -66.1061 0.027934
1633
root -14.8851 14.5681 19.3753 -15.9927 -71.0004 16.0491
lfemur 10.0798 -11.4743 -12.2057
ltibia 31.3056 -0 0
lfoot -21.7313 29.1209 0.00765619
ltoes -43.4505 0 0
rfemur -52.4387 -14.7005 8.07837
rtibia 65.3306 -0 0
rfoot -9.33796 10.4467 0.00238361
rtoes 2.52454 -0 0
lowerback 12.9643 4.00797 -7.65325
upperback -0.546739 4.09565 -0.310476
thorax -8.40911 2.29249 3.14095
lowerneck 1.22494 -13.0823 -12.8339
upperneck 3.27057 -17.9713 10.5332
head 2.87861 -9.00606 4.45556
lclavicle 3.23522e-14 -3.57812e-15 0
lhumerus -72.0343 -16.9721 104.394
lradius 104.17 -0 0
lwrist 54.6406 0 0
lhand -12.6045 49.024 0.257689
lfingers 7.12502 -0 0
lthumb 13.4429 78.1623 0.106053
rclavicle 3.23522e-14 -3.57812e-15 0
rhumerus 46.4963 -3.98018 -55.9112
rradius 19.1225 -0 0
rwrist 21.7091 0 0
rhand -18.2859 -36.1203 0.0261366
rfingers 7.12502 -0 0
rthumb 7.99429 -65.946 0.0256057
1634
root -14.9081 14.5676 19.3801 -15.9747 -71.0276 16.1185
lfemur 10.2398 -11.5138 -12.2514
ltibia 31.0369 -0 0
lfoot -21.6794 29.1848 0.00690214
ltoes -43.4343 0 0
rfemur -52.5074 -14.7184 8.08161
rtibia 65.4475 -0 0
rfoot -9.49621 10.4401 0.00214882
rtoes 2.53035 -0 0
lowerback 12.9492 4.00461 -7.65419
upperback -0.561583 4.09307 -0.300881
thorax -8.41728 2.29236 3.15258
lowerneck 1.25672 -13.0867 -12.8352
upperneck 3.25667 -17.9802 10.539
head 2.87102 -9.01134 4.45937
lclavicle 3.23522e-14 -3.57812e-15 0
lhumerus -72.0514 -17.0225 104.411
lradius 104.166 -0 0
lwrist 54.699 0 0
lhand -13.3283 48.8705 0.232226
lfingers 7.12502 -0 0
lthumb 12.749 78.0963 0.0955774
rclavicle 3.23522e-14 -3.57812e-15 0
rhumerus 46.5537 -4.00691 -55.9872
rradius 19.099 -0 0
rwrist 21.8814 0 0
rhand -18.214 -35.9626 0.0235621
rfingers 7.12502 -0 0
rthumb 8.0637 -65.7859 0.0230835
1635
root -14.9311 14.5671 19.3848 -15.9568 -71.0548 16.1879
lfemur 10.3999 -11.5531 -12.2972
ltibia 30.7683 -0 0
lfoot -21.6274 29.2488 0.00609009
ltoes -43.4181 0 0
rfemur -52.5762 -14.7364 8.08487
rtibia 65.5645 -0 0
rfoot -9.65447 10.4336 0.00189598
rtoes 2.53616 -0 0
lowerback 12.9342 4.00124 -7.65514
upperback -0.576428 4.0905 -0.291285
thorax -8.42546 2.29222 3.16421
lowerneck 1.28851 -13.0911 -12.8364
upperneck 3.24276 -17.9891 10.5447
head 2.86342 -9.01662 4.46318
lclavicle 3.23522e-14 -3.57812e-15 0
lhumerus -72.0686 -17.073 104.429
lradius 104.161 -0 0
lwrist 54.7574 0 0
lhand -14.052 48.7172 0.204825
lfingers 7.12502 -0 0
lthumb 12.055 78.0305 0.0843037
rclavicle 3.23522e-14 -3.57812e-15 0
rhumerus 46.6111 -4.03356 -56.0632
rradius 19.0754 -0 0
rwrist 22.0536 0 0
rhand -18.1421 -35.8049 0.0207896
rfingers 7.12502 -0 0
rthumb 8.13311 -65.6259 0.0203673
1636
root -14.9541 14.5665 19.3896 -15.939 -71.0821 16.2574
lfemur 10.56 -11.5923 -12.3431
ltibia 30.4996 -0 0
lfoot -21.5754 29.3127 0.00522005
ltoes -43.4019 0 0
rfemur -52.6449 -14.7544 8.08815
rtibia 65.6814 -0 0
rfoot -9.81272 10.4271 0.0016251
rtoes 2.54197 -0 0
lowerback 12.9192 3.99788 -7.65608
upperback -0.591273 4.08792 -0.281689
thorax -8.43363 2.29209 3.17585
lowerneck 1.3203 -13.0955 -12.8376
upperneck 3.22885 -17.998 10.5505
head 2.85583 -9.0219 4.46699
lclavicle 3.23522e-14 -3.57812e-15 0
lhumerus -72.0858 -17.1234 104.446
lradius 104.156 -0 0
lwrist 54.8159 0 0
lhand -14.7756 48.5643 0.175491
lfingers 7.12502 -0 0
lthumb 11.3611 77.9647 0.0722335
rclavicle 3.23522e-14 -3.57812e-15 0
rhumerus 46.6685 -4.06014 -56.1392
rradius 19.0519 -0 0
rwrist 22.2259 0 0
rhand -18.0702 -35.6472 0.0178193
rfingers 7.12502 -0 0
rthumb 8.20251 -65.4658 0.0174573
1637
root -14.9771 14.566 19.3943 -15.9212 -71.1093 16.327
lfemur 10.7202 -11.6313 -12.3891
ltibia 30.231 -0 0
lfoot -21.5235 29.3767 0.00429202
ltoes -43.3857 0 0
rfemur -52.7137 -14.7724 8.09146
rtibia 65.7983 -0 0
rfoot -9.97098 10.4205 0.00133617
rtoes 2.54778 -0 0
lowerback 12.9042 3.99452 -7.65703
upperback -0.606119 4.08535 -0.272092
thorax -8.4418 2.29195 3.18748
lowerneck 1.35209 -13.0999 -12.8388
upperneck 3.21493 -18.0069 10.5563
head 2.84824 -9.02718 4.4708
lclavicle 3.23522e-14 -3.57812e-15 0
lhumerus -72.103 -17.1739 104.464
lradius 104.152 -0 0
lwrist 54.8743 0 0
lhand -15.4991 48.4118 0.144228
lfingers 7.12502 -0 0
lthumb 10.6672 77.8992 0.0593685
rclavicle 3.23522e-14 -3.57812e-15 0
rhumerus 46.726 -4.08664 -56.2153
rradius 19.0283 -0 0
rwrist 22.3981 0 0
rhand -17.9983 -35.4895 0.0146511
rfingers 7.12502 -0 0
rthumb 8.2719 -65.3058 0.0143534
1638
root -15 14.5655 19.3991 -15.9035 -71.1366 16.3966
lfemur 10.8804 -11.6703 -12.4353
ltibia 29.9623 -0 0
lfoot -21.4715 29.4406 0.00330599
ltoes -43.3695 0 0
rfemur -52.7825 -14.7904 8.09479
rtibia 65.9152 -0 0
rfoot -10.1292 10.414 0.00102919
rtoes 2.55359 -0 0
lowerback 12.8892 3.99115 -7.65797
upperback -0.620965 4.08278 -0.262495
thorax -8.44998 2.29182 3.19911
lowerneck 1.38388 -13.1043 -12.8401
upperneck 3.20102 -18.0158 10.5621
head 2.84064 -9.03246 4.47461
lclavicle 3.23522e-14 -3.57812e-15 0
lhumerus -72.1203 -17.2243 104.481
lradius 104.147 -0 0
lwrist 54.9327 0 0
lhand -16.2225 48.2597 0.111042
lfingers 7.12502 -0 0
lthumb 9.9733 77.8338 0.0457105
rclavicle 3.23522e-14 -3.57812e-15 0
rhumerus 46.7835 -4.11307 -56.2914
rradius 19.0048 -0 0
rwrist 22.5704 0 0
rhand -17.9265 -35.3318 0.011285
rfingers 7.12502 -0 0
rthumb 8.34128 -65.1457 0.0110557
1639
root -15.023 14.565 19.4038 -15.886 -71.1639 16.4663
lfemur 11.0407 -11.7091 -12.4815
ltibia 29.6937 -0 0
lfoot -21.4195 29.5045 0.00226198
ltoes -43.3533 0 0
rfemur -52.8512 -14.8084 8.09814
rtibia 66.0322 -0 0
rfoot -10.2875 10.4075 0.000704164
rtoes 2.5594 -0 0
lowerback 12.8741 3.98779 -7.65891
upperback -0.635811 4.08022 -0.252897
thorax -8.45815 2.29169 3.21074
lowerneck 1.41567 -13.1087 -12.8413
upperneck 3.18711 -18.0246 10.5678
head 2.83305 -9.03774 4.47842
lclavicle 3.23522e-14 -3.57812e-15 0
lhumerus -72.1375 -17.2748 104.499
lradius 104.142 -0 0
lwrist 54.9911 0 0
lhand -16.9459 48.108 0.0759378
lfingers 7.12502 -0 0
lthumb 9.27943 77.7686 0.0312617
rclavicle 3.23522e-14 -3.57812e-15 0
rhumerus 46.8411 -4.13942 -56.3675
rradius 18.9812 -0 0
rwrist 22.7427 0 0
rhand -17.8546 -35.1741 0.00772109
rfingers 7.12502 -0 0
rthumb 8.41066 -64.9857 0.00756424
